<svg width="38" height="38" viewBox="0 0 38 38" fill="none" xmlns="http://www.w3.org/2000/svg">
<g id="mdi:instagram">
<path id="Vector" d="M12.3501 3.16699H25.6501C30.7167 3.16699 34.8334 7.28366 34.8334 12.3503V25.6503C34.8334 28.0859 33.8659 30.4217 32.1437 32.1439C30.4215 33.8661 28.0857 34.8337 25.6501 34.8337H12.3501C7.28341 34.8337 3.16675 30.717 3.16675 25.6503V12.3503C3.16675 9.91475 4.13428 7.57894 5.85648 5.85673C7.57869 4.13452 9.91451 3.16699 12.3501 3.16699ZM12.0334 6.33366C10.5217 6.33366 9.07186 6.93419 8.00291 8.00315C6.93395 9.07211 6.33341 10.5219 6.33341 12.0337V25.967C6.33341 29.1178 8.88258 31.667 12.0334 31.667H25.9667C27.4785 31.667 28.9283 31.0665 29.9973 29.9975C31.0662 28.9285 31.6667 27.4787 31.6667 25.967V12.0337C31.6667 8.88282 29.1176 6.33366 25.9667 6.33366H12.0334ZM27.3126 8.70866C27.8375 8.70866 28.3409 8.91718 28.7121 9.28834C29.0832 9.65951 29.2917 10.1629 29.2917 10.6878C29.2917 11.2127 29.0832 11.7161 28.7121 12.0873C28.3409 12.4585 27.8375 12.667 27.3126 12.667C26.7877 12.667 26.2843 12.4585 25.9131 12.0873C25.5419 11.7161 25.3334 11.2127 25.3334 10.6878C25.3334 10.1629 25.5419 9.65951 25.9131 9.28834C26.2843 8.91718 26.7877 8.70866 27.3126 8.70866ZM19.0001 11.0837C21.0997 11.0837 23.1133 11.9177 24.598 13.4024C26.0827 14.8871 26.9167 16.9007 26.9167 19.0003C26.9167 21.1 26.0827 23.1136 24.598 24.5983C23.1133 26.0829 21.0997 26.917 19.0001 26.917C16.9004 26.917 14.8868 26.0829 13.4022 24.5983C11.9175 23.1136 11.0834 21.1 11.0834 19.0003C11.0834 16.9007 11.9175 14.8871 13.4022 13.4024C14.8868 11.9177 16.9004 11.0837 19.0001 11.0837ZM19.0001 14.2503C17.7403 14.2503 16.5321 14.7508 15.6413 15.6416C14.7505 16.5324 14.2501 17.7405 14.2501 19.0003C14.2501 20.2601 14.7505 21.4683 15.6413 22.3591C16.5321 23.2499 17.7403 23.7503 19.0001 23.7503C20.2599 23.7503 21.468 23.2499 22.3588 22.3591C23.2496 21.4683 23.7501 20.2601 23.7501 19.0003C23.7501 17.7405 23.2496 16.5324 22.3588 15.6416C21.468 14.7508 20.2599 14.2503 19.0001 14.2503Z" fill="black"/>
</g>
</svg>
