<svg width="38" height="38" viewBox="0 0 38 38" fill="none" xmlns="http://www.w3.org/2000/svg">
<g id="mingcute:social-x-line">
<g id="Group">
<path id="Vector" fill-rule="evenodd" clip-rule="evenodd" d="M31.2756 7.37675C31.4125 7.22018 31.5172 7.03818 31.5838 6.84113C31.6504 6.64408 31.6775 6.43585 31.6636 6.22832C31.6497 6.0208 31.5951 5.81804 31.5028 5.63163C31.4106 5.44521 31.2825 5.27879 31.126 5.14187C30.9694 5.00496 30.7874 4.90022 30.5903 4.83363C30.3933 4.76705 30.1851 4.73994 29.9775 4.75383C29.77 4.76772 29.5672 4.82236 29.3808 4.91461C29.1944 5.00686 29.028 5.13493 28.8911 5.2915L20.8003 14.5382L13.9333 5.38333C13.7859 5.18669 13.5946 5.02708 13.3748 4.91716C13.1549 4.80723 12.9125 4.75 12.6667 4.75H6.33333C6.03929 4.75 5.75106 4.83188 5.50093 4.98647C5.2508 5.14106 5.04866 5.36224 4.91716 5.62525C4.78566 5.88825 4.72999 6.18267 4.7564 6.47553C4.78281 6.76838 4.89024 7.0481 5.06667 7.28333L15.2586 20.8715L6.72442 30.6248C6.5875 30.7814 6.48276 30.9634 6.41618 31.1605C6.3496 31.3575 6.32248 31.5657 6.33637 31.7733C6.35027 31.9808 6.4049 32.1835 6.49715 32.37C6.58941 32.5564 6.71747 32.7228 6.87404 32.8597C7.03061 32.9966 7.21261 33.1014 7.40966 33.1679C7.60671 33.2345 7.81494 33.2616 8.02247 33.2478C8.23 33.2339 8.43275 33.1792 8.61917 33.087C8.80558 32.9947 8.972 32.8667 9.10892 32.7101L17.1998 23.4618L24.0667 32.6167C24.2141 32.8133 24.4054 32.9729 24.6252 33.0828C24.8451 33.1928 25.0875 33.25 25.3333 33.25H31.6667C31.9607 33.25 32.2489 33.1681 32.4991 33.0135C32.7492 32.8589 32.9513 32.6378 33.0828 32.3748C33.2143 32.1118 33.27 31.8173 33.2436 31.5245C33.2172 31.2316 33.1098 30.9519 32.9333 30.7167L22.7414 17.1285L31.2756 7.37675ZM26.125 30.0833L9.5 7.91667H11.875L28.5 30.0833H26.125Z" fill="black"/>
</g>
</g>
</svg>
